<svg xmlns="http://www.w3.org/2000/svg" xmlns:xlink="http://www.w3.org/1999/xlink" version="1.1" x="0px" y="0px" viewBox="0 0 48 60" enable-background="new 0 0 48 48" xml:space="preserve"><g><path fill="#000000" d="M46.3,26.8c1.7-1.8,1.7-4.6-0.1-6.3l-0.6-0.6c-0.2-0.2-0.2-0.4-0.1-0.6l0.3-0.7c1-2.3-0.1-4.9-2.4-5.8   l-1.3-0.6c-0.2-0.1-0.3-0.3-0.3-0.5l0-1.4c0-2.5-2.1-4.4-4.5-4.4l-0.8,0c-0.2,0-0.4-0.1-0.5-0.4l-0.3-0.7c-0.9-2.3-3.5-3.4-5.8-2.4   l-1.3,0.5c-0.2,0.1-0.4,0-0.6-0.1l-1-1C25,0,22.2,0.1,20.5,1.9l-0.6,0.6c-0.2,0.2-0.4,0.2-0.6,0.1l-0.7-0.3c-2.3-1-4.9,0.1-5.8,2.4   l-0.6,1.3c-0.1,0.2-0.3,0.3-0.5,0.3l-1.4,0c-2.5,0-4.4,2.1-4.4,4.5l0,0.8c0,0.2-0.1,0.4-0.4,0.5l-0.7,0.3c-2.3,0.9-3.4,3.5-2.4,5.8   l0.5,1.3c0.1,0.2,0,0.4-0.1,0.6l-1,1C0,23,0.1,25.8,1.9,27.5l0.6,0.6c0.2,0.2,0.2,0.4,0.1,0.6l-0.3,0.7c-1,2.3,0.1,4.9,2.4,5.8   l1.3,0.6c0.2,0.1,0.3,0.3,0.3,0.5l0,1.4c0,2.5,2.1,4.4,4.5,4.4l0.8,0c0.2,0,0.4,0.1,0.5,0.4l0.3,0.7c0.9,2.3,3.5,3.4,5.8,2.4   l1.3-0.5c0.2-0.1,0.4,0,0.6,0.1l1,1c1.8,1.7,4.6,1.7,6.3-0.1l0.6-0.6c0.2-0.2,0.4-0.2,0.6-0.1l0.7,0.3c2.3,1,4.9-0.1,5.8-2.4   l0.6-1.3c0.1-0.2,0.3-0.3,0.5-0.3l1.4,0c2.5,0,4.4-2.1,4.4-4.5l0-0.8c0-0.2,0.1-0.4,0.4-0.5l0.7-0.3c2.3-0.9,3.4-3.5,2.4-5.8   l-0.5-1.3c-0.1-0.2,0-0.4,0.1-0.6L46.3,26.8z M13.1,21.8c-0.4-0.5-0.7-1.2-0.9-1.9c-0.2-0.8-0.3-1.6-0.3-2.6c0-0.9,0.1-1.7,0.3-2.5   c0.2-0.8,0.5-1.4,0.9-2c0.4-0.5,0.9-1,1.6-1.3c0.7-0.3,1.4-0.5,2.3-0.5c1,0,1.8,0.2,2.4,0.5c0.7,0.3,1.2,0.8,1.6,1.3   c0.4,0.6,0.7,1.2,0.8,1.9c0.2,0.7,0.2,1.5,0.2,2.4c0,0.9-0.1,1.8-0.3,2.6c-0.2,0.8-0.5,1.4-0.9,2c-0.4,0.5-1,1-1.6,1.3   c-0.7,0.3-1.4,0.5-2.3,0.5c-0.9,0-1.6-0.1-2.3-0.4C14.1,22.7,13.5,22.3,13.1,21.8z M17,35.1c-0.1,0.1-0.1,0.2-0.2,0.2   c-0.1,0.1-0.2,0.1-0.3,0.1c-0.1,0-0.3,0.1-0.4,0.1c-0.2,0-0.4,0-0.6,0c-0.3,0-0.5,0-0.6-0.1c-0.2,0-0.3-0.1-0.3-0.2   c-0.1-0.1-0.1-0.2-0.1-0.3c0-0.1,0.1-0.2,0.2-0.4l16.4-23.5c0.1-0.1,0.1-0.2,0.2-0.2c0.1-0.1,0.2-0.1,0.3-0.2   c0.1,0,0.3-0.1,0.4-0.1c0.2,0,0.4,0,0.6,0s0.5,0,0.6,0.1c0.2,0,0.3,0.1,0.4,0.2c0.1,0.1,0.1,0.2,0.1,0.3c0,0.1-0.1,0.2-0.2,0.4   L17,35.1z M35.7,31.5c-0.2,0.8-0.5,1.4-0.9,2c-0.4,0.5-1,1-1.6,1.3c-0.7,0.3-1.4,0.5-2.3,0.5c-0.9,0-1.6-0.1-2.3-0.4   c-0.6-0.3-1.1-0.7-1.5-1.2c-0.4-0.5-0.7-1.2-0.9-1.9c-0.2-0.8-0.3-1.6-0.3-2.6c0-0.9,0.1-1.7,0.3-2.5c0.2-0.8,0.5-1.4,0.9-2   c0.4-0.5,0.9-1,1.6-1.3c0.7-0.3,1.4-0.5,2.3-0.5c1,0,1.8,0.2,2.4,0.5c0.7,0.3,1.2,0.8,1.6,1.3c0.4,0.6,0.7,1.2,0.8,1.9   C36,27.4,36,28.2,36,29C36,29.9,35.9,30.8,35.7,31.5z"/><path fill="#000000" d="M32.9,25.9c-0.2-0.4-0.5-0.6-0.8-0.8c-0.3-0.2-0.7-0.3-1.2-0.3c-0.4,0-0.8,0.1-1.1,0.3   c-0.3,0.2-0.6,0.4-0.8,0.8c-0.2,0.3-0.3,0.8-0.4,1.3s-0.1,1.1-0.1,1.8c0,0.8,0.1,1.5,0.2,2.1c0.1,0.6,0.3,1,0.5,1.3   c0.2,0.3,0.5,0.5,0.8,0.7c0.3,0.1,0.7,0.2,1.1,0.2c0.5,0,0.9-0.1,1.2-0.3c0.3-0.2,0.6-0.5,0.7-0.8c0.2-0.4,0.3-0.8,0.4-1.3   c0.1-0.5,0.1-1.1,0.1-1.7c0-0.7,0-1.3-0.1-1.8C33.2,26.7,33.1,26.3,32.9,25.9z"/><path fill="#000000" d="M15.2,20.5c0.2,0.3,0.5,0.5,0.8,0.7c0.3,0.1,0.7,0.2,1.1,0.2c0.5,0,0.9-0.1,1.2-0.3   c0.3-0.2,0.6-0.5,0.7-0.8c0.2-0.4,0.3-0.8,0.4-1.3c0.1-0.5,0.1-1.1,0.1-1.7c0-0.7,0-1.3-0.1-1.8s-0.2-1-0.4-1.3s-0.5-0.6-0.8-0.8   c-0.3-0.2-0.7-0.3-1.2-0.3c-0.4,0-0.8,0.1-1.1,0.3c-0.3,0.2-0.6,0.4-0.8,0.8c-0.2,0.3-0.3,0.8-0.4,1.3c-0.1,0.5-0.1,1.1-0.1,1.8   c0,0.8,0.1,1.5,0.2,2.1C14.8,19.8,15,20.2,15.2,20.5z"/></g><text x="0" y="63" fill="#000000" font-size="5px" font-weight="bold" font-family="'Helvetica Neue', Helvetica, Arial-Unicode, Arial, Sans-serif">Created by Creative Stall</text><text x="0" y="68" fill="#000000" font-size="5px" font-weight="bold" font-family="'Helvetica Neue', Helvetica, Arial-Unicode, Arial, Sans-serif">from the Noun Project</text></svg>